<svg xmlns="http://www.w3.org/2000/svg" version="1.1" xmlns:xlink="http://www.w3.org/1999/xlink"
    xmlns:svgjs="http://svgjs.dev/svgjs" width="2000" height="1500" viewBox="0 0 2000 1500">
    <rect width="2000" height="1500" fill="#ffffff"></rect>
    <g
        transform="matrix(0.282326369282891,0,0,0.282326369282891,717.379701894294,248.38709677419342)">
        <svg viewBox="0 0 140 248" data-background-color="#ffffff"
            preserveAspectRatio="xMidYMid meet" height="3542" width="2000"
            xmlns="http://www.w3.org/2000/svg" xmlns:xlink="http://www.w3.org/1999/xlink">
            <g id="tight-bounds" transform="matrix(1,0,0,1,0.07287671232876392,0.4000000000000057)">
                <svg viewBox="0 0 139.85424657534247 247.2" height="247.2"
                    width="139.85424657534247">
                    <g>
                        <svg viewBox="0 0 139.85424657534247 247.2" height="247.2"
                            width="139.85424657534247">
                            <g>
                                <svg viewBox="0 0 139.85424657534247 247.2" height="247.2"
                                    width="139.85424657534247">
                                    <g id="textblocktransform">
                                        <svg viewBox="0 0 139.85424657534247 247.2" height="247.2"
                                            width="139.85424657534247" id="textblock">
                                            <g>
                                                <svg viewBox="0 0 139.85424657534247 247.2"
                                                    height="247.2" width="139.85424657534247">
                                                    <g transform="matrix(1,0,0,1,0,0)">
                                                        <svg width="139.85424657534247"
                                                            viewBox="2.3 -35.65 20.650000000000002 36.5"
                                                            height="247.2"
                                                            data-palette-color="#2257bf">
                                                            <path
                                                                d="M22.95-9L22.95-9Q22.95-5.9 21.28-3.68 19.6-1.45 16.95-0.3 14.3 0.85 11.25 0.85L11.25 0.85Q8.95 0.85 6.6 0.35 4.25-0.15 2.3-1.05L2.3-1.05Q2.4-3.1 2.65-5.15 2.9-7.2 3.55-9.25L3.55-9.25Q3.75-9.3 4.1-9.3L4.1-9.3Q4.45-9.3 4.75-9.2 5.05-9.1 5.35-9L5.35-9 6.2-2.55Q7.3-2.2 8.45-1.98 9.6-1.75 10.7-1.75L10.7-1.75Q12.55-1.75 14.13-2.55 15.7-3.35 16.68-4.93 17.65-6.5 17.65-8.9L17.65-8.9Q17.65-13.15 15.2-15.13 12.75-17.1 8.45-17.15L8.45-17.15 8.45-19.15Q12.3-19.3 14.6-21.45 16.9-23.6 16.9-26.75L16.9-26.75Q16.9-30.25 15.18-31.7 13.45-33.15 11.1-33.15L11.1-33.15Q10.1-33.15 9.08-32.9 8.05-32.65 7.1-32.25L7.1-32.25 6.15-26Q5.55-25.7 4.9-25.7L4.9-25.7Q4.55-25.7 4.35-25.75L4.35-25.75Q3.85-27.65 3.53-29.63 3.2-31.6 3.2-33.7L3.2-33.7Q5.15-34.55 7.53-35.1 9.9-35.65 12.25-35.65L12.25-35.65Q14.7-35.65 16.8-34.85 18.9-34.05 20.2-32.18 21.5-30.3 21.5-27.15L21.5-27.15Q21.5-24.95 20.4-23.18 19.3-21.4 17.57-20.23 15.85-19.05 13.9-18.6L13.9-18.6 13.9-18.4Q18.35-17.75 20.65-15.53 22.95-13.3 22.95-9Z"
                                                                opacity="1"
                                                                transform="matrix(1,0,0,1,0,0)"
                                                                fill="#2257bf"
                                                                class="wordmark-text-0"
                                                                data-fill-palette-color="primary"
                                                                id="text-0"></path>
                                                        </svg>
                                                    </g>
                                                </svg>
                                            </g>
                                        </svg>
                                    </g>
                                </svg>
                            </g>
                            <g></g>
                        </svg>
                    </g>
                    <defs></defs>
                </svg>
                <rect width="139.85424657534247" height="247.2" fill="none" stroke="none"
                    visibility="hidden"></rect>
            </g>
        </svg>
    </g>
</svg>